<mxfile host="app.diagrams.net" modified="2023-10-04T02:18:06.721Z" agent="Mozilla/5.0 (Windows NT 10.0; Win64; x64; rv:109.0) Gecko/20100101 Firefox/117.0" etag="TRSJrdxnBinKFZLJJyR5" version="22.0.2" type="github">
  <diagram name="Page-1" id="1gNLVyFoG3q5c6xyNkQS">
    <mxGraphModel dx="1591" dy="1896" grid="1" gridSize="10" guides="1" tooltips="1" connect="1" arrows="1" fold="1" page="1" pageScale="1" pageWidth="850" pageHeight="1100" math="0" shadow="0">
      <root>
        <mxCell id="0" />
        <mxCell id="1" parent="0" />
        <mxCell id="y0Mm45QzAHqXlBvt1gOM-39" value="" style="edgeStyle=orthogonalEdgeStyle;rounded=0;orthogonalLoop=1;jettySize=auto;html=1;" edge="1" parent="1" source="y0Mm45QzAHqXlBvt1gOM-11" target="y0Mm45QzAHqXlBvt1gOM-20">
          <mxGeometry relative="1" as="geometry" />
        </mxCell>
        <mxCell id="y0Mm45QzAHqXlBvt1gOM-11" value="MULAI" style="strokeWidth=2;html=1;shape=mxgraph.flowchart.start_1;whiteSpace=wrap;" vertex="1" parent="1">
          <mxGeometry x="390" y="-40" width="100" height="60" as="geometry" />
        </mxCell>
        <mxCell id="y0Mm45QzAHqXlBvt1gOM-54" value="" style="edgeStyle=orthogonalEdgeStyle;rounded=0;orthogonalLoop=1;jettySize=auto;html=1;" edge="1" parent="1" source="y0Mm45QzAHqXlBvt1gOM-16" target="y0Mm45QzAHqXlBvt1gOM-43">
          <mxGeometry relative="1" as="geometry">
            <mxPoint x="910" y="490" as="targetPoint" />
          </mxGeometry>
        </mxCell>
        <mxCell id="y0Mm45QzAHqXlBvt1gOM-55" value="YES" style="edgeLabel;html=1;align=center;verticalAlign=middle;resizable=0;points=[];" vertex="1" connectable="0" parent="y0Mm45QzAHqXlBvt1gOM-54">
          <mxGeometry x="0.0497" y="-1" relative="1" as="geometry">
            <mxPoint as="offset" />
          </mxGeometry>
        </mxCell>
        <mxCell id="y0Mm45QzAHqXlBvt1gOM-56" value="" style="edgeStyle=orthogonalEdgeStyle;rounded=0;orthogonalLoop=1;jettySize=auto;html=1;" edge="1" parent="1" source="y0Mm45QzAHqXlBvt1gOM-16" target="y0Mm45QzAHqXlBvt1gOM-18">
          <mxGeometry relative="1" as="geometry" />
        </mxCell>
        <mxCell id="y0Mm45QzAHqXlBvt1gOM-57" value="NO" style="edgeLabel;html=1;align=center;verticalAlign=middle;resizable=0;points=[];" vertex="1" connectable="0" parent="y0Mm45QzAHqXlBvt1gOM-56">
          <mxGeometry x="-0.225" y="3" relative="1" as="geometry">
            <mxPoint as="offset" />
          </mxGeometry>
        </mxCell>
        <mxCell id="y0Mm45QzAHqXlBvt1gOM-16" value="ANGKA&amp;lt;TEBAKAN" style="strokeWidth=2;html=1;shape=mxgraph.flowchart.decision;whiteSpace=wrap;" vertex="1" parent="1">
          <mxGeometry x="630" y="450" width="140" height="100" as="geometry" />
        </mxCell>
        <mxCell id="y0Mm45QzAHqXlBvt1gOM-36" value="" style="edgeStyle=orthogonalEdgeStyle;rounded=0;orthogonalLoop=1;jettySize=auto;html=1;" edge="1" parent="1" source="y0Mm45QzAHqXlBvt1gOM-17" target="y0Mm45QzAHqXlBvt1gOM-34">
          <mxGeometry relative="1" as="geometry" />
        </mxCell>
        <mxCell id="y0Mm45QzAHqXlBvt1gOM-48" value="YES" style="edgeLabel;html=1;align=center;verticalAlign=middle;resizable=0;points=[];" vertex="1" connectable="0" parent="y0Mm45QzAHqXlBvt1gOM-36">
          <mxGeometry x="-0.1833" y="-2" relative="1" as="geometry">
            <mxPoint as="offset" />
          </mxGeometry>
        </mxCell>
        <mxCell id="y0Mm45QzAHqXlBvt1gOM-51" value="" style="edgeStyle=orthogonalEdgeStyle;rounded=0;orthogonalLoop=1;jettySize=auto;html=1;" edge="1" parent="1" source="y0Mm45QzAHqXlBvt1gOM-17" target="y0Mm45QzAHqXlBvt1gOM-16">
          <mxGeometry relative="1" as="geometry" />
        </mxCell>
        <mxCell id="y0Mm45QzAHqXlBvt1gOM-52" value="NO" style="edgeLabel;html=1;align=center;verticalAlign=middle;resizable=0;points=[];" vertex="1" connectable="0" parent="y0Mm45QzAHqXlBvt1gOM-51">
          <mxGeometry x="-0.4111" relative="1" as="geometry">
            <mxPoint as="offset" />
          </mxGeometry>
        </mxCell>
        <mxCell id="y0Mm45QzAHqXlBvt1gOM-17" value="TEBAKAN =ANGKA" style="strokeWidth=2;html=1;shape=mxgraph.flowchart.decision;whiteSpace=wrap;" vertex="1" parent="1">
          <mxGeometry x="390" y="450" width="100" height="100" as="geometry" />
        </mxCell>
        <mxCell id="y0Mm45QzAHqXlBvt1gOM-58" value="" style="edgeStyle=orthogonalEdgeStyle;rounded=0;orthogonalLoop=1;jettySize=auto;html=1;" edge="1" parent="1" source="y0Mm45QzAHqXlBvt1gOM-18" target="y0Mm45QzAHqXlBvt1gOM-41">
          <mxGeometry relative="1" as="geometry" />
        </mxCell>
        <mxCell id="y0Mm45QzAHqXlBvt1gOM-59" value="YES" style="edgeLabel;html=1;align=center;verticalAlign=middle;resizable=0;points=[];" vertex="1" connectable="0" parent="y0Mm45QzAHqXlBvt1gOM-58">
          <mxGeometry x="-0.2695" relative="1" as="geometry">
            <mxPoint as="offset" />
          </mxGeometry>
        </mxCell>
        <mxCell id="y0Mm45QzAHqXlBvt1gOM-62" value="" style="edgeStyle=orthogonalEdgeStyle;rounded=0;orthogonalLoop=1;jettySize=auto;html=1;exitX=0;exitY=0.5;exitDx=0;exitDy=0;exitPerimeter=0;entryX=0.404;entryY=0.971;entryDx=0;entryDy=0;entryPerimeter=0;" edge="1" parent="1" source="y0Mm45QzAHqXlBvt1gOM-18" target="y0Mm45QzAHqXlBvt1gOM-34">
          <mxGeometry relative="1" as="geometry">
            <mxPoint x="580.5" y="709.64" as="sourcePoint" />
            <mxPoint x="180" y="550" as="targetPoint" />
          </mxGeometry>
        </mxCell>
        <mxCell id="y0Mm45QzAHqXlBvt1gOM-67" value="NO" style="edgeLabel;html=1;align=center;verticalAlign=middle;resizable=0;points=[];" vertex="1" connectable="0" parent="y0Mm45QzAHqXlBvt1gOM-62">
          <mxGeometry x="-0.2601" y="1" relative="1" as="geometry">
            <mxPoint as="offset" />
          </mxGeometry>
        </mxCell>
        <mxCell id="y0Mm45QzAHqXlBvt1gOM-18" value="ANGKA&amp;gt;TEBAKAN" style="strokeWidth=2;html=1;shape=mxgraph.flowchart.decision;whiteSpace=wrap;" vertex="1" parent="1">
          <mxGeometry x="635" y="640" width="130" height="100" as="geometry" />
        </mxCell>
        <mxCell id="y0Mm45QzAHqXlBvt1gOM-40" value="" style="edgeStyle=orthogonalEdgeStyle;rounded=0;orthogonalLoop=1;jettySize=auto;html=1;" edge="1" parent="1" source="y0Mm45QzAHqXlBvt1gOM-20" target="y0Mm45QzAHqXlBvt1gOM-21">
          <mxGeometry relative="1" as="geometry" />
        </mxCell>
        <mxCell id="y0Mm45QzAHqXlBvt1gOM-20" value="ANGKA" style="shape=parallelogram;html=1;strokeWidth=2;perimeter=parallelogramPerimeter;whiteSpace=wrap;rounded=1;arcSize=12;size=0.23;" vertex="1" parent="1">
          <mxGeometry x="375" y="80" width="130" height="60" as="geometry" />
        </mxCell>
        <mxCell id="y0Mm45QzAHqXlBvt1gOM-38" value="" style="edgeStyle=orthogonalEdgeStyle;rounded=0;orthogonalLoop=1;jettySize=auto;html=1;" edge="1" parent="1" source="y0Mm45QzAHqXlBvt1gOM-21" target="y0Mm45QzAHqXlBvt1gOM-22">
          <mxGeometry relative="1" as="geometry" />
        </mxCell>
        <mxCell id="y0Mm45QzAHqXlBvt1gOM-21" value="TEBAKAN" style="shape=parallelogram;html=1;strokeWidth=2;perimeter=parallelogramPerimeter;whiteSpace=wrap;rounded=1;arcSize=12;size=0.23;" vertex="1" parent="1">
          <mxGeometry x="375" y="200" width="130" height="60" as="geometry" />
        </mxCell>
        <mxCell id="y0Mm45QzAHqXlBvt1gOM-35" value="" style="edgeStyle=orthogonalEdgeStyle;rounded=0;orthogonalLoop=1;jettySize=auto;html=1;" edge="1" parent="1" source="y0Mm45QzAHqXlBvt1gOM-22" target="y0Mm45QzAHqXlBvt1gOM-17">
          <mxGeometry relative="1" as="geometry" />
        </mxCell>
        <mxCell id="y0Mm45QzAHqXlBvt1gOM-22" value="MENEBAK" style="rounded=1;whiteSpace=wrap;html=1;absoluteArcSize=1;arcSize=14;strokeWidth=2;" vertex="1" parent="1">
          <mxGeometry x="390" y="300" width="100" height="60" as="geometry" />
        </mxCell>
        <mxCell id="y0Mm45QzAHqXlBvt1gOM-33" value="END" style="strokeWidth=2;html=1;shape=mxgraph.flowchart.start_1;whiteSpace=wrap;" vertex="1" parent="1">
          <mxGeometry x="10" y="640" width="100" height="60" as="geometry" />
        </mxCell>
        <mxCell id="y0Mm45QzAHqXlBvt1gOM-60" value="" style="edgeStyle=orthogonalEdgeStyle;rounded=0;orthogonalLoop=1;jettySize=auto;html=1;" edge="1" parent="1" source="y0Mm45QzAHqXlBvt1gOM-34" target="y0Mm45QzAHqXlBvt1gOM-33">
          <mxGeometry relative="1" as="geometry">
            <Array as="points">
              <mxPoint x="70" y="490" />
            </Array>
          </mxGeometry>
        </mxCell>
        <mxCell id="y0Mm45QzAHqXlBvt1gOM-34" value="BENAR" style="shape=parallelogram;html=1;strokeWidth=2;perimeter=parallelogramPerimeter;whiteSpace=wrap;rounded=1;arcSize=12;size=0.23;" vertex="1" parent="1">
          <mxGeometry x="130" y="470" width="100" height="60" as="geometry" />
        </mxCell>
        <mxCell id="y0Mm45QzAHqXlBvt1gOM-64" value="" style="edgeStyle=orthogonalEdgeStyle;rounded=0;orthogonalLoop=1;jettySize=auto;html=1;entryX=0.954;entryY=0.417;entryDx=0;entryDy=0;entryPerimeter=0;" edge="1" parent="1" source="y0Mm45QzAHqXlBvt1gOM-41" target="y0Mm45QzAHqXlBvt1gOM-21">
          <mxGeometry relative="1" as="geometry">
            <mxPoint x="1150" y="90" as="targetPoint" />
            <Array as="points">
              <mxPoint x="1171" y="690" />
              <mxPoint x="1171" y="225" />
            </Array>
          </mxGeometry>
        </mxCell>
        <mxCell id="y0Mm45QzAHqXlBvt1gOM-41" value="ANGKA SAYA LEBIH BESAR" style="shape=parallelogram;html=1;strokeWidth=2;perimeter=parallelogramPerimeter;whiteSpace=wrap;rounded=1;arcSize=12;size=0.23;align=center;" vertex="1" parent="1">
          <mxGeometry x="870" y="665" width="220" height="50" as="geometry" />
        </mxCell>
        <mxCell id="y0Mm45QzAHqXlBvt1gOM-66" value="" style="edgeStyle=orthogonalEdgeStyle;rounded=0;orthogonalLoop=1;jettySize=auto;html=1;entryX=1;entryY=0.25;entryDx=0;entryDy=0;" edge="1" parent="1" source="y0Mm45QzAHqXlBvt1gOM-43" target="y0Mm45QzAHqXlBvt1gOM-21">
          <mxGeometry relative="1" as="geometry">
            <mxPoint x="1000" y="250" as="targetPoint" />
            <Array as="points">
              <mxPoint x="1010" y="217" />
            </Array>
          </mxGeometry>
        </mxCell>
        <mxCell id="y0Mm45QzAHqXlBvt1gOM-43" value="ANGKA SAYA LEBIH KECIL" style="shape=parallelogram;html=1;strokeWidth=2;perimeter=parallelogramPerimeter;whiteSpace=wrap;rounded=1;arcSize=12;size=0.23;" vertex="1" parent="1">
          <mxGeometry x="930" y="470" width="200" height="60" as="geometry" />
        </mxCell>
      </root>
    </mxGraphModel>
  </diagram>
</mxfile>
